<svg
        version="1.1"
        viewBox="0 0 419.53 595.28"
        xml:space="preserve"
        xmlns="http://www.w3.org/2000/svg"
        xmlns:svg="http://www.w3.org/2000/svg">
<style
        type="text/css"
        id="style2">
	.st0{fill:#FFFFFF;}
	.st1{fill-rule:evenodd;clip-rule:evenodd;fill:#010202;}
	.st2{fill:#010202;}
</style>
    <g
            id="g140">
	<g
            id="g10">
		<path
                class="st1"
                d="M243.75,444.45c-14.63,3.62-26.91,3.94-37.21,1.95l-14.24,0.88c13.72,7.32,29.42,10.77,45.69,9.05    c37.7-3.98,66.66-34.31,72.77-72.24c1.62,3.88,3.37,6.97,5.22,8.83c0,0,4.14-6.09,7.77-19.4l-23.04,3.26    C300.66,403.05,289.6,433.12,243.75,444.45z"
                id="path6" />
        <path
                class="st1"
                d="M325.39,179.27c3.86-12.7,39.9-5.18,36.62-6.44c-3.29-1.26-14.08-10.06-38.63-4.02    c0,0,28.57-50.7,75.25-15.29c0,0-45.47-52.72-103.82,0.8c0,0,3.8-45.07-47.08-56.34c-7.8,0.19,42.65,14.89,29.77,60.36    c0,0-49.41-49.86-127.56-8.45c-5.42,6.85,61.56-14.9,93.75,25.35c0,0-52.22,7.67-68.81,70.82c2.01,10.23,30.18-56.33,94.16-31.39    c0,0-33.8,4.43-30.58,36.22c0,0,20.93-30.98,53.92-15.29c0,0,0.82,16.37-16.13,21.22c0,0,12.8,10.39,22.16-3.52    c0,0,7.79,27.02-1.24,64.8c-16.91-26.31-46.34-42.3-77.9-38.97c-45.74,4.82-78.63,48.41-73.46,97.34    c1.63,15.45,6.87,29.58,14.7,41.54l3.45-5.52l0.66,0.42c-3.83-7.66-6.36-15.64-8.02-22.92c78.74-5.26,73.85-23.23,73.85-23.23    c-20.5,13.98-68.61,14.28-75.54,14.25c-0.27-1.84-0.49-3.59-0.66-5.22c75.03-1.12,73.69-20.76,73.69-20.76    c-16.65,12.2-63.77,12.57-74.19,12.5c-0.02-2.06,0.08-3.44,0.23-3.92c0,0,7.93-64.47,60.51-69.92    c52.58-5.46,58.37,14.01,78.86,37.19c2.1,2.38-1.98,0.49-1.98,0.49s1.25,2.81,2.83,7.54c0.02-0.1,0.03-0.21,0.05-0.3l12.1,7.97    c0,0-9.78,5.66-4.12,8.75c5.66,3.08,3.61,10.54,1.8,14.67l-1.8,4.12l22.33-3.72c5.11-20.92,8.42-57.28-4.4-112.73    c0,0-2.36-12.95,16.1-4.77c0,0,1.26-13.73-20.12-12.88c0,0,7.25-19.32,27.37-21.73c0,0-6.34-8.53-27.37-6.04    c-15.49,1.83,37.27-34.99,84.51-0.41C405.32,213.92,387.01,171.17,325.39,179.27z M188.17,143.05c0,0,51.91-20.93,79.27,45.87    C267.44,188.93,243.7,140.23,188.17,143.05z M187.37,224.34c28.97-48.29,84.5-20.52,84.5-20.52    C211.92,189.73,187.37,224.34,187.37,224.34z M243.7,238.82c0,0,9.26-25.75,49.5-14.89C293.2,223.93,261.82,219.11,243.7,238.82z     M313.52,350.27c-0.82-15.59-7.5-22.52-7.5-22.52c13.53-42.66-7.27-98.06-7.27-98.06C326.58,298.64,313.52,347.19,313.52,350.27z"
                id="path8" />
	</g>
        <g
                id="g18">
		<path
                class="st2"
                d="M153.49,358.47c5.01,0,9.88-1.68,12.87-2.95l2.94,6.09l18.63-4.56l-2.27-5.25c2.07,0.9,4.95,1.47,8.98,1.47    c5.44,0,7.34-0.53,7.56-0.57l2.93-0.39l2.79-2.93l0.1,2.36l18.54-2.86l0.06-1.35l16.93-0.82l3.55-9.85l8.81-0.32l1.45,7.46    l22.13-3.31v-0.49l15.75-1.63l-0.14-2.91c-1.45-30.16,2.86-49.81,2.9-50.01l0.88-3.93l-23.28,1.07l0.21,3.14    c0.3,4.67-0.3,24.74-0.77,38.33l-15.15-37.4h-13.56l-19.15,46.31l1.63-42.13l-20.11,1.51l-0.71,37.91l-5.45,0.12l2.03-37.8    l-20.4,4.37l0.16,2.63c0.31,5.37,0,11.16-0.53,16.79c-0.85-2.79-2.04-5.26-3.46-7.34c-4.79-7.06-12.73-7.69-14.52-7.74    c-0.46-0.06-1.54-0.17-3.05-0.17c-6.41,0-27.3,2.36-27.3,32.75C135.46,355.3,146.76,358.47,153.49,358.47z"
                id="path12" />
            <path
                    class="st2"
                    d="M298.79,349.85l2.98-2.64l-10.49-7.03l-1.76,1.38c-0.43,0.34-3,2.47-4.91,5.58l-0.68-5.01l-18.53,2.25    l-0.07,8.74c-4.12-5.09-12.49-6.53-22.22-3.6l-2.11,0.64l-1.03,31.24l12.34-0.39l0.51-0.06c0.36-0.07,7.7-1.69,12.36-10.28    l-0.07,7.13h18.67l0.21-6.04l7.63,4.79l1.71-1.34c0.67-0.52,6.55-5.3,7.09-11.17c0.23-2.53-0.58-4.93-2.33-6.92    C295.09,353.72,297.88,350.69,298.79,349.85z M254.81,362.82c-0.21,1.55-0.99,2.61-1.9,3.31l-0.1-5.16    c0.97,0.16,1.61,0.45,1.85,0.73C254.83,361.9,254.88,362.27,254.81,362.82z M284.21,366.14l-0.03,0.02l0.06-1.63h-0.19l0.35-4.92    c0.27,0.38,0.51,0.78,0.83,1.14c0.64,0.72,1.66,2.09,1.42,3.1C286.42,364.89,284.89,365.85,284.21,366.14z"
                    id="path14" />
            <path
                    class="st2"
                    d="M343.06,382.59l2.65-2.55l-12.38-9l-1.84,1.58c-2.16,1.84-4.73,4.72-6.61,8.14l-0.91-7.23l-23.65,3.13    l-0.01,1.31h-15.63l0.24,12.99l-9.12-10.94l-10.68,2.25l-0.64,24.37l-8.68-21.66l-12.23,0.53l-7.71,23.28l-1.41-20.65l-16.7,1.62    v11.78l-8.55-9.9l-11.34,1.62l-2.42,20.18l-7.65-18.65l-12.22,0.53l-9.71,31.81c-0.64-1.01-1.38-1.98-2.37-2.91    c1.8-3.77,5.98-12.23,3.7-18.3c-1.28-3.41-2.55-6.57-6.44-7.87h-2.87l-20.93,5.1l-0.77,46.94l20.02-2.13l0.58-0.35    c0.38-0.23,1.86-1.15,3.6-2.58l-0.2,0.65h17.17l2.01-10.05l4.2,0.15l1.76,7.01l15.92-1.02v-1.25l11-0.79l0.98-15.9l9.52,13.57    l10.93-1.15l0.01-1l10.37,0.38l3.03-9.81l4.28,0.17l2.15,6.82l15.72-2.03v-0.41l11.16-1.24v-16.01l9.29,12.7l10.99-0.58v-0.85    h22.93l0.27-8.6l9.81,6.68l1.78-1.52c5.47-4.65,13.88-15.85,6.49-24.92C336.54,389.35,342.39,383.25,343.06,382.59z"
                    id="path16" />
	</g>
        <g
                id="g58">
		<g
                id="g26">
			<path
                    fill="#FFFFFF"
                    d="M243.55,352.56l-0.85,25.75l9.06-0.27c0,0,8.2-1.7,11.89-12.46C267.32,354.82,258.54,348.02,243.55,352.56z      M257.42,363.31c-0.85,6.5-7.93,7.36-7.93,7.36l-0.27-12.73C249.21,357.93,258.26,356.8,257.42,363.31z"
                    id="path20" />
            <polygon
                    fill="#FFFFFF"
                    points="268.01,347.19 267.77,374.81 280.35,374.81 280.59,367.68 274.3,367.68 274.54,363.68      280.59,363.45 281.08,356.77 274.3,356.55 274.54,352.76 281.81,352.76 280.84,345.64    "
                    id="polygon22" />
            <path
                    fill="#FFFFFF"
                    d="M290.97,344.06l5.33,3.58c0,0-6.3,5.58-0.98,11.61c5.34,6.03-4.35,13.63-4.35,13.63l-6.06-3.8     c0,0,8.24-3.35,2.18-10.27C281.05,351.88,290.97,344.06,290.97,344.06z"
                    id="path24" />
		</g>
            <g
                    id="g42">
			<polygon
                    fill="#FFFFFF"
                    points="200.76,395.87 199.75,437.48 209.22,436.81 210.57,414.82 224.11,434.1 230.54,433.43      231.21,391.48 220.73,392.49 220.73,409.75 207.87,394.86    "
                    id="polygon28" />
                <polygon
                        fill="#FFFFFF"
                        points="268.08,427.33 268.08,384.71 274.51,383.36 288.04,399.6 287.71,380.99 297.86,380.99      297.51,422.26 291.09,422.59 277.21,403.66 277.21,426.32    "
                        id="polygon30" />
                <polygon
                        fill="#FFFFFF"
                        points="303.26,379.3 302.93,421.24 320.52,421.24 320.86,410.42 312.05,410.42 312.4,404.33 320.86,403.99      321.53,393.84 312.05,393.5 312.4,387.76 322.55,387.76 321.19,376.93    "
                        id="polygon32" />
                <path
                        fill="#FFFFFF"
                        d="M333.37,374.91l7.44,5.41c0,0-8.8,8.45-1.35,17.59c7.45,9.14-6.09,20.63-6.09,20.63l-8.45-5.75     c0,0,11.5-5.07,3.04-15.56C319.5,386.74,333.37,374.91,333.37,374.91z"
                        id="path34" />
                <path
                        fill="#FFFFFF"
                        d="M253.54,388.09l-7.78,0.34l-13.54,43.63l9.47,0.34l3.05-9.82l8.8,0.35l2.03,6.42l10.48-1.35v-4.06     L253.54,388.09z M246.43,412.45l2.7-10.15l3.38,9.81L246.43,412.45z"
                        id="path36" />
                <path
                        fill="#FFFFFF"
                        d="M185.54,397.9l-7.78,0.34l-13.54,44.32h10.49l2.03-10.15l9.13,0.33l1.69,6.76l10.48-0.67v-5.75L185.54,397.9     z M178.78,421.58l3.05-9.47l3.72,9.47H178.78z"
                        id="path38" />
                <path
                        fill="#FFFFFF"
                        d="M159.49,424.96c0,0,10.5-17.92-2.7-22.32l-16.92,3.04l-0.68,40.93l15.9-1.69     C155.1,444.93,172.69,434.44,159.49,424.96z M149.01,421.92v-10.48c0,0,6.43,1.35,4.74,6.09     C152.05,422.26,149.01,421.92,149.01,421.92z M154.42,433.76c-1.69,4.06-5.07,5.08-5.07,5.08l0.33-9.13     C149.68,429.7,156.11,429.7,154.42,433.76z"
                        id="path40" />
		</g>
            <g
                    id="g56">
			<g
                    id="g52">
				<path
                        fill="#FFFFFF"
                        d="M295.24,284.45c0,0-4.46,19.84-2.97,50.83l-14.37,1.49c0,0,1.73-44.14,1.23-51.58L295.24,284.45z"
                        id="path44" />
                <path
                        fill="#FFFFFF"
                        d="M225.82,294.38l-1.98,51.32l-12.9,1.99l-0.49-5.7l-6.77,7.06c0,0-19.02,3.59-19.52-4.34      c-0.49-7.93,4.47-28.51,3.47-45.63l13.89-2.97l-1.99,36.94l11.66-0.09l-0.01-35.37L225.82,294.38z"
                        id="path46" />
                <path
                        fill="#FFFFFF"
                        d="M258.05,289.41h-9.43l-22.55,54.55l15.37-0.74l3.22-11.16l13.64-0.49l1.73,8.43l16.61-2.48v-2.23      L258.05,289.41z M247.88,318.67l4.71-11.4l4.47,11.4H247.88z"
                        id="path48" />
                <path
                        fill="#FFFFFF"
                        d="M175.97,342.22c15.37-38.43-10.17-38.18-10.17-38.18s-27.02-4.22-27.02,29.51      c0,33.72,29.26,17.35,29.26,17.35l2.94,7.12l12.15-2.98L175.97,342.22z M167.23,332.64c-4.33,9.51-17.87,7.78-17.3-1.44      c0.57-9.23,6.3-13.17,10.67-12.68C164.97,318.99,171.56,323.12,167.23,332.64z"
                        id="path50" />
			</g>
                <path
                        fill="#FFFFFF"
                        d="M164.37,332.18c-2.99,6.58-12.37,5.38-11.97-1c0.4-6.38,4.36-9.12,7.39-8.78     C162.8,322.73,167.37,325.59,164.37,332.18z"
                        id="path54" />
		</g>
	</g>
        <g
                id="g138">
		<path
                class="st2"
                d="M83.46,425.68c-0.77-0.8-1.14-1.94-1.11-3.43c0.02-1.13,0.27-2.35,0.75-3.67l3.83,1.19l-0.42,0.36    c-0.65,0.62-1.13,1.4-1.44,2.32c-0.37,1.1-0.26,1.95,0.32,2.56c0.6,0.63,1.28,0.86,2.04,0.7c0.61-0.13,1.26-0.53,1.94-1.19    c1.38-1.32,2.26-3.26,2.65-5.79c0.25-2.23,0.48-4.48,0.7-6.71c0.4-2.58,1.28-4.53,2.64-5.84c1.6-1.53,3.51-1.9,5.74-1.11    c1.73,0.62,3.46,1.82,5.19,3.61c1.38,1.44,2.57,2.87,3.57,4.29c1,1.42,1.8,2.94,2.41,4.55l-2.65,0.23    c-0.5-0.94-1.03-1.92-1.58-2.93c-0.54-1.02-1.14-1.86-1.78-2.52c-1.17-1.22-2.39-2.18-3.67-2.89c-1.84-1.02-3.23-1.09-4.17-0.19    c-0.41,0.4-0.72,1.65-0.92,3.76c-0.27,2.83-0.61,4.94-1.02,6.33c-0.78,2.66-2.09,4.88-3.95,6.66c-1.23,1.18-2.74,1.74-4.55,1.68    C86.18,427.6,84.67,426.94,83.46,425.68z"
                id="path60" />
            <path
                    class="st2"
                    d="M75.26,419.6l-9.6-10.35l2.36-2.08c1.07,0.55,2.17,1.31,3.31,2.26c0.28,0.25,1.91,1.81,4.88,4.69l3.86-3.8    l-3.37-3.98l3.74-3.17l3.67,4.69l5.34-4.82l-5.22-5.73l2.34-2.3l7.67,9.03L75.26,419.6z"
                    id="path62" />
            <path
                    class="st2"
                    d="M75.33,398.54c-2.9,2.02-5.56,3.19-7.98,3.5c-3.16,0.39-5.65-0.73-7.49-3.35c-1.17-1.67-1.52-3.42-1.07-5.23    c0.45-1.82,1.51-3.3,3.18-4.47l2.23,2.66l-0.7,0.45c-1.72,1.2-2.72,2.31-3.01,3.34c-0.24,0.88-0.04,1.78,0.61,2.7    c1.14,1.64,3.02,1.96,5.65,0.99c1.47-0.55,3.38-1.65,5.72-3.28c2.61-1.82,4.45-3.48,5.5-4.98c1.05-1.49,1.24-2.72,0.58-3.66    c-0.85-1.22-2.03-1.81-3.54-1.79c-1.33,0.03-2.62,0.47-3.85,1.33c-0.24,0.17-0.41,0.3-0.51,0.4c-0.39-0.56-0.83-1.1-1.31-1.61    c-0.49-0.52-0.82-0.87-1.01-1.07c2.18-1.52,4.27-2.17,6.27-1.96c2.12,0.23,3.92,1.41,5.41,3.56c1.34,1.92,1.36,4.22,0.08,6.9    C79,395.22,77.42,397.08,75.33,398.54z"
                    id="path64" />
            <path
                    class="st2"
                    d="M67.68,367.03l2.95,4.35c-0.52,0.21-0.99,0.43-1.41,0.65c-0.42,0.22-0.91,0.5-1.48,0.83    c-1.35,0.8-2.51,1.66-3.49,2.59c-1.53,1.45-2.04,2.61-1.53,3.48c0.23,0.39,0.57,0.68,1.01,0.87l7.88-5.96l2.52,4.28    c-1.52,0.63-2.97,1.26-4.36,1.9c-1.39,0.64-2.69,1.31-3.89,2.02c-1.1,0.65-2.38,1.46-3.86,2.45c-1.47,0.99-2.95,1.97-4.44,2.95    c-1.48,0.98-2.79,1.8-3.9,2.46c-0.7-0.91-1.38-1.92-2.04-3.06c-1.43-2.43-2.06-4.43-1.89-6.01c0.2-1.86,1.46-3.47,3.81-4.85    c0.9-0.53,1.99-0.71,3.27-0.55c1.28,0.16,2.27,0.64,2.97,1.42c0.38-1.46,1.47-3.25,3.26-5.35    C64.58,369.72,66.13,368.23,67.68,367.03z M53.7,385.48l7.14-3.98l-0.22-0.38c-0.53-0.9-0.98-1.46-1.34-1.68    c-0.47-0.27-1.17-0.26-2.1,0.02c-0.69,0.21-1.31,0.48-1.86,0.81c-1.03,0.6-1.67,1.34-1.91,2.22    C53.16,383.37,53.26,384.36,53.7,385.48z"
                    id="path66" />
            <path
                    class="st2"
                    d="M45.32,376.62l-6.97-12.28l2.78-1.47c0.91,0.78,1.81,1.78,2.7,2.96c0.22,0.3,1.44,2.2,3.67,5.69l4.64-2.81    l-2.37-4.64l4.36-2.23l2.5,5.4l6.3-3.46l-3.77-6.78l2.81-1.7l5.39,10.55L45.32,376.62z"
                    id="path68" />
            <path
                    class="st2"
                    d="M40.21,354.59l1.49,4.06l-4.28,2.26l-8.18-20.22l2.45-0.51l5.93,11.44l18.75-8.5l2.01,5.25L40.21,354.59z"
                    id="path70" />
            <path
                    class="st2"
                    d="M37.51,318.27l-0.28-0.67c-0.23-0.96,0.35-1.89,1.77-2.81c1.06-0.68,2.2-1.17,3.42-1.46    c1.44-0.35,2.77,0.05,4,1.2c1.07,1.01,1.79,2.27,2.15,3.79c0.35,1.46,0.51,2.92,0.46,4.39c-1.66,0.4-3.63,0.83-5.92,1.29    c-2.29,0.45-4.59,0.91-6.89,1.36c-2.3,0.45-4.29,0.88-5.97,1.28c-1.26,0.3-2.46,0.75-3.58,1.34c-0.61-1.19-1.06-2.44-1.38-3.76    c-0.49-2.04-0.38-3.77,0.33-5.19c0.77-1.52,2.16-2.52,4.16-3c1.68-0.41,3.1-0.47,4.27-0.2C35.41,316.17,36.57,316.98,37.51,318.27    z M36.18,322.08c-1.02-1.42-2.05-2.25-3.07-2.46c-0.76-0.15-2.13,0.01-4.1,0.48c-0.92,0.22-1.52,0.73-1.79,1.54    c-0.22,0.67-0.21,1.5,0.03,2.5l0.06,0.24L36.18,322.08z M46.55,319.43l-0.1-0.42c-0.28-1.16-0.66-1.86-1.15-2.08    c-0.49-0.23-1.35-0.26-2.58-0.09l-1.1,0.17c-0.76,0.18-1.27,0.65-1.53,1.42c-0.18,0.55-0.23,1.28-0.14,2.19L46.55,319.43z"
                    id="path72" />
            <path
                    class="st2"
                    d="M45.78,307.16l0.6,3.4c-3.98,0.15-7.63,0.08-10.95-0.2c-3.8-0.32-7.38-0.95-10.73-1.89l-1.52-5.66    c3.9-1.13,7.41-2.19,10.54-3.17c3.94-1.23,7.41-2.37,10.4-3.44l0.72,4.26l-7.84,2.1l1.17,4.5L45.78,307.16z M31.49,306.81    l-0.62-2.56l-4.69,1.17l0.79,0.81L31.49,306.81z"
                    id="path74" />
            <path
                    class="st2"
                    d="M42.9,281.93l0.82,5.19c-0.57-0.03-1.08-0.03-1.55-0.01c-0.47,0.03-1.04,0.07-1.69,0.13    c-1.56,0.14-2.98,0.43-4.26,0.86c-2.01,0.66-2.96,1.49-2.87,2.5c0.04,0.45,0.22,0.86,0.55,1.22l9.66-2.04l0.46,4.95    c-1.64-0.08-3.22-0.12-4.75-0.13c-1.53-0.01-2.99,0.04-4.38,0.17c-1.27,0.12-2.78,0.31-4.53,0.57c-1.75,0.27-3.51,0.53-5.27,0.78    c-1.76,0.25-3.29,0.44-4.58,0.56c-0.25-1.11-0.43-2.33-0.55-3.64c-0.26-2.8,0.03-4.88,0.85-6.24c0.97-1.6,2.8-2.52,5.51-2.77    c1.04-0.1,2.11,0.21,3.2,0.9c1.09,0.69,1.78,1.54,2.08,2.55c0.97-1.16,2.71-2.31,5.23-3.45C38.94,283.04,40.97,282.35,42.9,281.93    z M22.39,292.68l8.15-0.56l-0.04-0.43c-0.1-1.05-0.26-1.74-0.5-2.09c-0.31-0.45-0.94-0.74-1.91-0.88    c-0.71-0.1-1.38-0.12-2.02-0.06c-1.19,0.11-2.08,0.51-2.68,1.19C22.8,290.52,22.46,291.47,22.39,292.68z"
                    id="path76" />
            <path
                    class="st2"
                    d="M31.8,262.29c-3.52-0.26-6.32-1.04-8.39-2.33c-2.7-1.68-3.93-4.13-3.69-7.32c0.15-2.03,0.97-3.61,2.47-4.74    c1.5-1.13,3.26-1.61,5.29-1.46l0.05,3.47l-0.83-0.09c-2.09-0.15-3.57,0.08-4.44,0.69c-0.74,0.52-1.15,1.35-1.23,2.48    c-0.15,1.99,1.11,3.43,3.76,4.33c1.49,0.5,3.66,0.86,6.51,1.07c3.18,0.24,5.64,0.1,7.4-0.39c1.76-0.5,2.68-1.32,2.77-2.47    c0.11-1.48-0.43-2.68-1.62-3.61c-1.05-0.82-2.33-1.29-3.83-1.4c-0.29-0.02-0.5-0.03-0.65-0.02c0.05-0.68,0.05-1.37,0-2.07    c-0.05-0.7-0.09-1.19-0.11-1.46c2.65,0.2,4.68,1,6.1,2.43c1.49,1.51,2.15,3.57,1.95,6.17c-0.17,2.34-1.61,4.14-4.29,5.4    C36.75,262.04,34.34,262.48,31.8,262.29z"
                    id="path78" />
            <path
                    class="st2"
                    d="M38.89,236.58c-0.37,2.36-1.41,4.21-3.13,5.57c-1.71,1.35-3.73,1.85-6.07,1.48c-1.93-0.3-3.33-1.38-4.21-3.22    c-0.77-1.62-0.99-3.42-0.68-5.41c0.35-2.19,1.33-3.83,2.96-4.91c1.63-1.08,3.56-1.44,5.79-1.08c1.95,0.31,3.4,1.16,4.36,2.57    C38.88,232.99,39.2,234.65,38.89,236.58z M26.07,236.91c-0.14,0.87,0.1,1.6,0.72,2.19c0.62,0.58,1.38,0.95,2.3,1.09    c0.79,0.12,1.82,0.06,3.11-0.18c1.28-0.25,2.15-0.62,2.62-1.1l1.02-1.31c0.08-0.11,0.28-0.36,0.59-0.75    c0.24-0.34,0.38-0.61,0.42-0.84c0.1-0.67-0.08-1.41-0.56-2.21c-0.47-0.8-1.04-1.26-1.69-1.36l-0.34-0.02    c-1.86-0.13-3.53,0.14-5.03,0.8C27.38,234.01,26.33,235.25,26.07,236.91z"
                    id="path80" />
            <path
                    class="st2"
                    d="M38.51,213.39l-0.6,4.11c-1.6-0.23-2.83-0.3-3.69-0.21c-1.6,0.17-2.54,0.8-2.8,1.9    c-0.2,0.84,0.41,1.67,1.82,2.48c1.41,0.81,3.47,1.54,6.17,2.18c1.79,0.42,3.03,0.58,3.76,0.48c1.31-0.2,2.15-1.05,2.52-2.57    c0.11-0.46,0.11-0.83-0.01-1.11c-0.11-0.28-0.4-0.47-0.86-0.58c-0.42-0.1-0.92-0.18-1.48-0.23c-0.57-0.05-0.95-0.09-1.16-0.12    l0.91-4.48c1.54,0.37,2.71,1.15,3.5,2.36c0.79,1.2,1.01,2.57,0.64,4.11c-0.6,2.52-1.94,4.33-4.02,5.42    c-1.96,1.04-4.23,1.24-6.81,0.63c-2.22-0.53-4.04-1.83-5.46-3.9c-1.42-2.07-1.87-4.21-1.34-6.41c0.41-1.72,1.6-2.96,3.58-3.71    C34.91,213.07,36.7,212.96,38.51,213.39z"
                    id="path82" />
            <path
                    class="st2"
                    d="M51.94,209.88l-1.59,4.97c-1.99-0.87-3.91-1.69-5.78-2.44c-1.86-0.75-3.66-1.41-5.38-1.96    c-1.88-0.6-3.67-1.09-5.35-1.46c-1.68-0.37-3.88-0.81-6.59-1.31l1.34-4.2l9.45,3.05c0.13-1.43-0.13-2.61-0.79-3.56    c-0.66-0.94-1.67-1.63-3.05-2.07c-1.23-0.4-2.46-0.59-3.7-0.6l2.8-5.52c1.89,1.45,3.39,2.84,4.49,4.19    c1.45,1.76,2.36,3.56,2.74,5.41c1.98-0.86,3.57-1.48,4.78-1.88c1.62-0.52,3.16-0.85,4.63-1c1.46-0.14,3.13-0.08,4.99,0.19    l-2.45,5.14c-2.57-0.82-4.49-1.28-5.77-1.39c-2.52-0.21-4.06,0.53-4.58,2.19L51.94,209.88z"
                    id="path84" />
            <path
                    class="st2"
                    d="M35.02,192.97l0.92-2.32l-3.55-1.27l1.16-2.92l3.41,1.61l1.58-4.02l3.27,1.29l-1.88,4.16l8.97,3.24    c0.74,0.25,1.48,0.48,2.21,0.71c0.65,0.15,1.01,0.12,1.1-0.09c0.16-0.4-0.38-0.99-1.62-1.77c-1.42-0.78-2.25-1.24-2.5-1.39    l2.39-2.97c1.86,1.35,3.1,2.69,3.72,4.02c0.51,1.11,0.57,2.17,0.17,3.18c-0.31,0.78-0.74,1.39-1.28,1.81    c-0.65,0.52-1.34,0.63-2.09,0.34l-12.16-4.8l-0.89,2.5L35.02,192.97z"
                    id="path86" />
            <path
                    class="st2"
                    d="M50.25,179.44c0.15-0.31,0.33-0.61,0.55-0.88c0.22-0.27,0.47-0.52,0.74-0.76l-1.25-0.59    c-0.57-0.27-1.14-0.5-1.7-0.67c-0.55-0.17-1.1-0.31-1.62-0.4c-0.65-0.06-1.19-0.03-1.63,0.08c-0.43,0.11-0.72,0.34-0.88,0.67    c-0.09,0.19,0.01,0.68,0.29,1.47c0.15,0.37,0.31,0.72,0.5,1.07c0.18,0.35,0.37,0.65,0.55,0.89l-1.5,3.08    c-1.13-1.2-1.88-2.52-2.24-3.97c-0.35-1.48-0.29-2.71,0.18-3.67c0.53-1.11,1.34-1.96,2.43-2.53c1.12-0.63,2.3-0.75,3.55-0.35    l-0.03-0.01c1.09,0.26,2.28,0.67,3.59,1.22c0.62,0.23,1.38,0.54,2.27,0.93c0.9,0.39,1.89,0.85,2.99,1.37l2.7,1.29l2.24,1.1    l-1.39,3.78l-0.33-0.16c0.05,0.76-0.09,1.48-0.43,2.19c-0.56,1.17-1.57,1.88-3.06,2.13l0.03,0.01c-1.24,0.21-2.43,0.04-3.59-0.51    c-0.74-0.35-1.37-0.76-1.88-1.22c-0.51-0.46-0.91-0.94-1.2-1.44c-0.3-0.62-0.44-1.27-0.43-1.96    C49.71,180.9,49.89,180.18,50.25,179.44z M52.69,180.47c-0.24,0.5-0.2,0.98,0.12,1.42c0.32,0.45,0.78,0.82,1.37,1.1    c0.65,0.31,1.3,0.46,1.94,0.44c0.69,0.05,1.11-0.12,1.3-0.5c0.1-0.21,0.17-0.42,0.21-0.65c0.04-0.23,0.02-0.57-0.06-1.02    c-0.68-0.35-1.3-0.66-1.85-0.95c-0.56-0.29-1.18-0.6-1.86-0.95c-0.3,0.16-0.54,0.31-0.72,0.48    C52.97,180,52.82,180.21,52.69,180.47z"
                    id="path88" />
            <path
                    class="st2"
                    d="M49.06,167.3c0.49,0.25,0.82,0.55,1,0.89c0.17,0.34,0.14,0.74-0.1,1.2c-0.19,0.37-0.47,0.63-0.85,0.8    c-0.37,0.17-0.74,0.16-1.11-0.03c-0.4-0.21-0.71-0.57-0.91-1.09c-0.21-0.52-0.2-0.98,0-1.39c0.18-0.35,0.46-0.54,0.84-0.59    C48.33,167.04,48.7,167.11,49.06,167.3z M51.05,168.63l9.48,4.29l-1.48,2.88c-0.77-0.4-1.94-0.97-3.52-1.71    c-1.58-0.75-2.77-1.32-3.55-1.73c-0.3-0.15-0.63-0.35-1.02-0.61c-0.39-0.26-0.76-0.51-1.12-0.76L51.05,168.63z"
                    id="path90" />
            <path
                    class="st2"
                    d="M48.64,164.1l1.83-2.58l12.68,7.46l3.78-6.65l3.19,2.38l-5.75,8.12L48.64,164.1z"
                    id="path92" />
            <path
                    class="st2"
                    d="M72.14,144.55l0.31-0.65c0.58-0.8,1.67-0.97,3.28-0.5c1.21,0.36,2.33,0.9,3.34,1.63    c1.21,0.86,1.78,2.13,1.71,3.81c-0.06,1.47-0.55,2.84-1.46,4.11c-0.87,1.22-1.88,2.3-3.02,3.22c-1.39-0.99-3.01-2.2-4.85-3.64    c-1.85-1.43-3.7-2.87-5.54-4.32c-1.85-1.45-3.47-2.67-4.88-3.67c-1.05-0.75-2.17-1.36-3.35-1.83c0.5-1.24,1.14-2.4,1.93-3.51    c1.22-1.7,2.6-2.76,4.14-3.14c1.66-0.41,3.32-0.02,4.99,1.18c1.41,1,2.39,2.03,2.95,3.09C72.35,141.58,72.49,142.98,72.14,144.55z     M68.38,146.04c0.41-1.7,0.36-3.02-0.15-3.93c-0.38-0.67-1.4-1.6-3.06-2.78c-0.77-0.55-1.55-0.67-2.34-0.34    c-0.65,0.27-1.27,0.82-1.86,1.66l-0.15,0.2L68.38,146.04z M77.18,152.13l0.25-0.35c0.69-0.97,0.96-1.72,0.82-2.24    c-0.15-0.52-0.69-1.19-1.62-2.01l-0.84-0.72c-0.64-0.45-1.33-0.53-2.07-0.23c-0.54,0.22-1.12,0.67-1.75,1.33L77.18,152.13z"
                    id="path94" />
            <path
                    class="st2"
                    d="M77.99,134.68c0.22-0.27,0.47-0.51,0.75-0.72c0.28-0.22,0.58-0.4,0.9-0.56l-1.08-0.87    c-0.49-0.4-0.99-0.75-1.49-1.05c-0.5-0.29-0.99-0.55-1.48-0.76c-0.62-0.21-1.16-0.31-1.6-0.3c-0.44,0.01-0.78,0.16-1.01,0.45    c-0.13,0.16-0.15,0.66-0.06,1.5c0.05,0.39,0.13,0.78,0.23,1.16c0.1,0.38,0.21,0.72,0.32,1l-2.18,2.64    c-0.82-1.43-1.24-2.9-1.25-4.39c0.02-1.52,0.36-2.7,1.03-3.53c0.77-0.96,1.76-1.59,2.96-1.89c1.24-0.35,2.42-0.19,3.54,0.49    l-0.02-0.02c0.99,0.51,2.06,1.19,3.19,2.03c0.55,0.37,1.22,0.85,1.99,1.44c0.78,0.59,1.64,1.27,2.59,2.03l2.32,1.88l1.92,1.6    l-2.23,3.35l-0.29-0.24c-0.13,0.74-0.44,1.42-0.93,2.03c-0.82,1.01-1.98,1.46-3.48,1.35l0.03,0.02c-1.25-0.09-2.37-0.53-3.36-1.34    c-0.64-0.52-1.16-1.06-1.54-1.63c-0.39-0.57-0.66-1.12-0.82-1.68c-0.14-0.68-0.13-1.35,0.04-2.01    C77.13,135.97,77.47,135.32,77.99,134.68z M80.13,136.25c-0.35,0.43-0.42,0.9-0.21,1.42c0.2,0.51,0.56,0.97,1.08,1.39    c0.56,0.45,1.15,0.75,1.78,0.89c0.65,0.21,1.11,0.15,1.38-0.19c0.14-0.18,0.26-0.37,0.36-0.59c0.09-0.21,0.15-0.55,0.18-1.01    c-0.58-0.49-1.1-0.95-1.58-1.36c-0.47-0.41-1-0.86-1.58-1.36c-0.33,0.08-0.6,0.18-0.82,0.29    C80.51,135.86,80.31,136.03,80.13,136.25z"
                    id="path96" />
            <path
                    class="st2"
                    d="M83.04,129.11c-0.68-0.62-2.18-1.85-4.5-3.68c-1.17-0.92-2.06-1.66-2.68-2.23l2.08-2.28l1.09,0.87l-0.24-0.14    c-0.26-0.23-0.33-0.57-0.21-0.98c0.12-0.42,0.45-0.94,1.01-1.54c1.27-1.4,2.58-1.84,3.91-1.32c0.68,0.26,1.88,1.17,3.58,2.71    l-1.56,2.22c-1.23-0.93-1.99-1.48-2.28-1.66c-1.35-0.84-2.19-1.08-2.5-0.73c-0.44,0.49-0.57,1.01-0.38,1.57    c0.12,0.39,0.94,1.32,2.46,2.81c1.52,1.49,2.86,2.75,4,3.78c0.91,0.83,1.94,1.7,3.07,2.61c1.13,0.91,2.75,2.11,4.84,3.59    l-2.71,3.2c-0.91-0.83-2.77-2.66-5.59-5.5C85.02,130.98,83.89,129.88,83.04,129.11z"
                    id="path98" />
            <path
                    class="st2"
                    d="M115.37,100.66l7.11,7.32l-3.64,3.22c-0.82-1.54-1.57-2.88-2.27-4.02c-0.7-1.14-1.46-2.26-2.3-3.39    c-0.78-1.05-2.6-3.28-5.44-6.68c-1.42-1.69-2.5-3.04-3.25-4.04c1.05-1.35,2.2-2.49,3.48-3.44c1.65-1.23,3.21-1.68,4.67-1.37    c1.37,0.29,2.68,1.27,3.93,2.95c0.96,1.28,1.48,2.79,1.57,4.53c0.09,1.94-0.5,3.38-1.78,4.33c-0.32,0.25-0.75,0.42-1.27,0.52    C116,100.62,115.73,100.65,115.37,100.66z M109.87,93.02l4.38,5.93c0.55-0.13,1.04-0.35,1.46-0.67c0.56-0.42,0.69-1.13,0.38-2.13    c-0.23-0.73-0.62-1.45-1.16-2.17c-0.67-0.89-1.42-1.41-2.27-1.54C111.82,92.3,110.89,92.5,109.87,93.02z"
                    id="path100" />
            <path
                    class="st2"
                    d="M121.92,92.76c-1.3-2-1.85-3.75-1.64-5.24c0.21-1.49,1.27-2.87,3.2-4.13c1.48-0.96,3.05-1.07,4.69-0.32    c1.36,0.63,2.56,1.73,3.58,3.3l-6.36,4.14c0.47,0.68,0.93,1.36,1.4,2.03c1.22,1.69,2.28,2.23,3.2,1.64    c0.5-0.32,0.87-0.76,1.11-1.31c0.25-0.55,0.21-1.06-0.08-1.52c-0.2-0.29-0.46-0.6-0.79-0.93l3.05-2.09    c0.51,1.73,0.63,3.07,0.37,4.03c-0.3,1.13-1.17,2.16-2.62,3.1c-1.59,1.03-3.27,1.24-5.04,0.62    C124.35,95.52,123,94.41,121.92,92.76z M122.99,89.71l3.84-2.64l-0.22-0.34c-0.48-0.74-1.01-1.19-1.59-1.36    c-0.57-0.17-1.22-0.01-1.95,0.45c-0.67,0.44-1.02,0.95-1.05,1.53c-0.03,0.58,0.19,1.23,0.65,1.93L122.99,89.71z"
                    id="path102" />
            <path
                    class="st2"
                    d="M138.99,82.91c0.3-0.17,0.62-0.3,0.96-0.4c0.34-0.09,0.68-0.16,1.04-0.2l-0.68-1.21    c-0.32-0.55-0.65-1.06-1-1.52c-0.35-0.46-0.72-0.88-1.1-1.26c-0.5-0.43-0.96-0.72-1.37-0.87c-0.42-0.15-0.79-0.14-1.11,0.04    c-0.18,0.1-0.38,0.56-0.61,1.37c-0.09,0.39-0.16,0.77-0.21,1.16c-0.05,0.4-0.07,0.74-0.06,1.05l-3,1.65    c-0.24-1.63-0.09-3.15,0.45-4.54c0.57-1.41,1.33-2.38,2.26-2.9c1.07-0.61,2.22-0.83,3.45-0.67c1.28,0.13,2.32,0.71,3.11,1.75    l-0.02-0.03c0.73,0.84,1.47,1.86,2.22,3.06c0.38,0.55,0.82,1.24,1.33,2.07c0.5,0.83,1.06,1.78,1.65,2.84l1.47,2.61l1.2,2.19    l-3.31,2.29l-0.18-0.32c-0.39,0.65-0.93,1.16-1.61,1.54c-1.13,0.64-2.37,0.63-3.73-0.02l0.01,0.03c-1.13-0.54-2.01-1.37-2.64-2.48    c-0.41-0.72-0.68-1.41-0.83-2.08c-0.16-0.67-0.2-1.29-0.15-1.86c0.11-0.68,0.37-1.3,0.78-1.86    C137.71,83.79,138.27,83.31,138.99,82.91z M140.39,85.16c-0.48,0.27-0.72,0.68-0.72,1.23c0,0.55,0.17,1.12,0.49,1.69    c0.35,0.63,0.8,1.12,1.33,1.48c0.53,0.43,0.98,0.54,1.36,0.33c0.2-0.11,0.38-0.25,0.54-0.42c0.17-0.16,0.35-0.46,0.54-0.87    c-0.36-0.67-0.68-1.29-0.97-1.84c-0.29-0.56-0.62-1.17-0.97-1.84c-0.33-0.05-0.62-0.06-0.87-0.03    C140.89,84.93,140.65,85.01,140.39,85.16z"
                    id="path104" />
            <path
                    class="st2"
                    d="M154.19,89.8l-2.62,1.6c-0.53-1.09-1.14-2.46-1.84-4.11c-1.57-3.7-2.58-6-3.01-6.9    c-0.41-0.86-0.95-1.89-1.62-3.09c-1.52-2.74-2.45-4.45-2.78-5.13l2.17-1.32c1.33,0.25,2.72,0.69,4.19,1.31    c1.02,0.42,3.22,1.53,6.6,3.33c-0.63-2.03-1.41-3.99-2.32-5.9c-0.56-1.17-1.28-2.36-2.16-3.58c0.41-0.2,0.78-0.33,1.12-0.42    c0.34-0.08,0.8-0.16,1.38-0.23c0.47,0.97,0.95,2.02,1.45,3.17c1.26,2.86,2.06,4.64,2.4,5.35c0.72,1.5,1.64,3.14,2.74,4.91    c0.67,1.05,1.7,2.63,3.1,4.74l-3.5,1.41c-2.01-1.47-4.01-2.96-6.01-4.47c-2.44-1.75-4.57-3.05-6.4-3.91    c0.7,1.45,1.46,2.92,2.29,4.41c0.83,1.49,1.71,3.06,2.63,4.69C152.92,87.29,153.65,88.67,154.19,89.8z"
                    id="path106" />
            <path
                    class="st2"
                    d="M159.57,72.27c-0.27-0.69-0.6-1.45-1-2.29c-0.4-0.84-0.76-1.57-1.09-2.19l5.34-0.74    c0.36,1.87,0.73,3.53,1.12,4.97c0.39,1.44,0.87,2.89,1.45,4.37l0.2,0.52c0.37,0.94,0.73,1.6,1.08,1.99    c0.56,0.62,1.19,0.79,1.92,0.51c1.55-0.61,2.21-2.11,1.97-4.52c-0.15-1.45-0.63-3.21-1.44-5.3c-0.61-1.57-1.25-3.06-1.91-4.45    c-0.66-1.4-1.38-2.81-2.15-4.23l4.33-2.73c0.47,2.27,0.97,4.35,1.51,6.25c0.53,1.9,1.18,3.82,1.93,5.75    c1.32,3.37,1.68,5.96,1.08,7.76c-0.5,1.52-1.68,2.65-3.52,3.37c-1.72,0.67-3.39,0.85-4.99,0.53c-1.84-0.36-3.08-1.36-3.72-2.98    c-0.27-0.71-0.63-1.81-1.06-3.3C160.2,74.08,159.84,72.97,159.57,72.27z"
                    id="path108" />
            <path
                    class="st2"
                    d="M172.37,58.11l2.39-0.75l-1.25-3.55l3-0.95l0.89,3.67l4.12-1.3l1.05,3.35l-4.42,1.17l3.12,9.01    c0.27,0.73,0.55,1.45,0.84,2.16c0.3,0.6,0.56,0.86,0.77,0.79c0.41-0.13,0.53-0.92,0.35-2.37c-0.28-1.59-0.45-2.53-0.49-2.82    l3.81,0c0.12,2.29-0.14,4.1-0.78,5.42c-0.54,1.1-1.33,1.81-2.37,2.14c-0.81,0.25-1.55,0.3-2.22,0.15    c-0.81-0.18-1.34-0.65-1.58-1.41l-3.92-12.47l-2.51,0.88L172.37,58.11z"
                    id="path110" />
            <path
                    class="st2"
                    d="M191.66,50.01c1.32-0.32,2.56,0.06,3.72,1.15c0.47,0.44,1.32,1.55,2.57,3.34l-3.53,1    c0.02-0.43-0.02-0.84-0.11-1.21c-0.13-0.52-0.46-1.09-0.99-1.69c-0.62-0.69-1.13-0.99-1.56-0.89c-0.98,0.24-1.6,0.85-1.87,1.83    c-0.23,0.8-0.22,1.71,0.04,2.75c0.32,1.27,1.32,2.22,3.02,2.84c1.57,0.51,3.13,1.01,4.69,1.51c1.76,0.79,2.85,2.04,3.27,3.74    c0.45,1.86,0.26,3.56-0.57,5.11c-0.84,1.55-2.17,2.55-4.01,3.01c-2.08,0.51-3.85,0.09-5.33-1.26c-0.39-0.35-1.18-1.25-2.39-2.71    l3.49-1.69c0.22,0.9,0.63,1.69,1.22,2.37c0.73,0.83,1.51,1.15,2.33,0.95c1.06-0.26,1.7-0.8,1.92-1.62    c0.16-0.61,0.11-1.49-0.17-2.63c-0.37-1.5-1.32-2.51-2.85-3.05c-1.4-0.46-2.81-0.92-4.22-1.38c-1.63-0.87-2.73-2.45-3.3-4.75    c-0.35-1.44-0.05-2.83,0.92-4.17C188.96,51.23,190.18,50.37,191.66,50.01z"
                    id="path112" />
            <path
                    class="st2"
                    d="M217.41,58.02l0.69-0.22c0.98-0.13,1.85,0.55,2.61,2.04c0.57,1.13,0.93,2.32,1.1,3.56    c0.2,1.46-0.33,2.75-1.59,3.86c-1.11,0.96-2.45,1.54-4,1.76c-1.48,0.2-2.96,0.2-4.42,0.01c-0.23-1.69-0.46-3.7-0.68-6.03    c-0.22-2.32-0.44-4.66-0.65-6.99c-0.21-2.33-0.43-4.36-0.66-6.07c-0.17-1.28-0.49-2.51-0.97-3.69c1.24-0.48,2.54-0.81,3.88-0.99    c2.07-0.28,3.79,0.01,5.12,0.86c1.43,0.93,2.29,2.41,2.56,4.45c0.23,1.71,0.15,3.13-0.23,4.26    C219.72,56.14,218.8,57.21,217.41,58.02z M213.75,56.3c1.52-0.87,2.45-1.8,2.77-2.8c0.23-0.74,0.21-2.11-0.06-4.13    c-0.13-0.94-0.57-1.58-1.35-1.94c-0.64-0.29-1.47-0.36-2.49-0.22l-0.25,0.03L213.75,56.3z M215.34,66.89l0.43-0.05    c1.18-0.16,1.91-0.47,2.19-0.94c0.28-0.46,0.4-1.32,0.35-2.56l-0.06-1.11c-0.1-0.77-0.52-1.33-1.25-1.67    c-0.53-0.24-1.26-0.36-2.17-0.36L215.34,66.89z"
                    id="path114" />
            <path
                    class="st2"
                    d="M228.56,55.53c0.35-0.03,0.7-0.01,1.04,0.04c0.34,0.06,0.68,0.15,1.02,0.26l-0.11-1.39    c-0.04-0.63-0.13-1.23-0.25-1.8c-0.12-0.57-0.28-1.1-0.46-1.61c-0.27-0.6-0.56-1.06-0.88-1.38c-0.31-0.31-0.65-0.46-1.02-0.43    c-0.21,0.02-0.58,0.34-1.13,0.98c-0.25,0.31-0.48,0.63-0.69,0.97c-0.21,0.33-0.38,0.64-0.5,0.92l-3.42,0.22    c0.48-1.58,1.26-2.89,2.34-3.92c1.11-1.03,2.2-1.59,3.28-1.67c1.22-0.1,2.36,0.19,3.4,0.86c1.1,0.66,1.79,1.63,2.07,2.91v-0.03    c0.3,1.07,0.54,2.31,0.71,3.72c0.11,0.65,0.22,1.47,0.32,2.44c0.1,0.97,0.2,2.06,0.29,3.27l0.23,2.98l0.16,2.49l-3.97,0.67    l-0.03-0.37c-0.63,0.42-1.33,0.66-2.11,0.71c-1.29,0.1-2.41-0.44-3.36-1.6v0.03c-0.79-0.97-1.24-2.09-1.33-3.36    c-0.06-0.82-0.02-1.57,0.13-2.24c0.15-0.67,0.37-1.25,0.66-1.75c0.39-0.57,0.89-1.02,1.49-1.35    C227.03,55.79,227.74,55.59,228.56,55.53z M228.88,58.17c-0.55,0.04-0.95,0.31-1.18,0.82c-0.23,0.5-0.32,1.08-0.27,1.73    c0.05,0.72,0.24,1.35,0.58,1.91c0.29,0.62,0.65,0.91,1.09,0.88c0.22-0.02,0.45-0.06,0.67-0.14c0.22-0.08,0.51-0.26,0.85-0.56    c-0.03-0.76-0.06-1.45-0.09-2.08c-0.02-0.63-0.05-1.32-0.09-2.08c-0.28-0.18-0.54-0.31-0.77-0.39    C229.43,58.17,229.17,58.14,228.88,58.17z"
                    id="path116" />
            <path
                    class="st2"
                    d="M236.03,55.39c-0.01-0.92-0.15-2.86-0.41-5.79c-0.13-1.48-0.2-2.64-0.21-3.48l3.08-0.05l0.12,1.39l-0.06-0.28    c-0.01-0.35,0.18-0.63,0.57-0.83c0.38-0.2,0.99-0.31,1.82-0.32c1.89-0.03,3.1,0.61,3.64,1.94c0.28,0.67,0.44,2.16,0.47,4.46    l-2.68,0.39c-0.17-1.54-0.28-2.47-0.35-2.8c-0.32-1.56-0.71-2.33-1.18-2.33c-0.66,0.01-1.13,0.28-1.41,0.8    c-0.2,0.35-0.31,1.6-0.35,3.72c-0.04,2.13-0.04,3.97-0.01,5.51c0.02,1.24,0.09,2.58,0.21,4.02c0.12,1.45,0.36,3.44,0.71,5.99    l-4.19,0.23c-0.02-1.23,0.03-3.85,0.17-7.84C236.03,58.12,236.05,56.54,236.03,55.39z"
                    id="path118" />
            <path
                    class="st2"
                    d="M282.39,70.94c0.85-2.61,1.6-5.02,2.24-7.24c0.64-2.21,1.25-4.6,1.84-7.14c0.38-1.64,0.68-3.16,0.91-4.54    c0.22-1.38,0.44-3.05,0.66-4.98l14.4,2.91l-1.63,3.07c-1.56-0.36-3.25-0.62-5.07-0.79c-1.35-0.12-3.06-0.21-5.13-0.27l-0.76,5.37    l5.09,1.11l-1.04,4.79l-5.78-1.46c-0.44,1.91-0.76,3.62-0.96,5.14c-0.21,1.52-0.26,3.05-0.17,4.57L282.39,70.94z"
                    id="path120" />
            <path
                    class="st2"
                    d="M301.82,61.84c0.7-2.28,1.7-3.82,2.98-4.62c1.28-0.8,3.02-0.85,5.22-0.18c1.69,0.52,2.77,1.66,3.24,3.39    c0.39,1.46,0.31,3.08-0.25,4.86l-7.25-2.24c-0.23,0.79-0.45,1.59-0.67,2.38c-0.52,2.01-0.26,3.18,0.78,3.5    c0.57,0.18,1.15,0.18,1.73,0.02c0.58-0.17,0.95-0.51,1.11-1.05c0.1-0.34,0.17-0.73,0.21-1.19l3.57,1.01    c-1,1.5-1.95,2.45-2.86,2.86c-1.05,0.49-2.41,0.48-4.06-0.03c-1.81-0.56-3.04-1.72-3.7-3.47    C301.26,65.47,301.24,63.73,301.82,61.84z M304.85,60.71l4.49,1.26l0.12-0.39c0.26-0.84,0.27-1.54,0.03-2.09    c-0.24-0.55-0.78-0.95-1.6-1.21c-0.77-0.24-1.38-0.18-1.85,0.17c-0.46,0.35-0.82,0.93-1.07,1.74L304.85,60.71z"
                    id="path122" />
            <path
                    class="st2"
                    d="M326.28,58.84c1.26,0.49,2.06,1.51,2.39,3.07c0.13,0.62,0.2,2.03,0.2,4.21l-3.47-1.2    c0.26-0.34,0.46-0.69,0.6-1.06c0.19-0.5,0.24-1.15,0.16-1.96c-0.11-0.92-0.36-1.46-0.76-1.62c-0.95-0.36-1.81-0.22-2.58,0.43    c-0.65,0.52-1.16,1.28-1.54,2.28c-0.48,1.22-0.19,2.58,0.85,4.06c1,1.31,1.99,2.61,2.98,3.92c0.99,1.66,1.18,3.3,0.55,4.93    c-0.68,1.79-1.81,3.08-3.39,3.87c-1.57,0.8-3.24,0.85-5.01,0.18c-2-0.77-3.21-2.13-3.65-4.08c-0.11-0.51-0.25-1.7-0.41-3.59    l3.83,0.61c-0.33,0.87-0.45,1.74-0.36,2.64c0.13,1.1,0.59,1.81,1.37,2.11c1.02,0.39,1.85,0.31,2.5-0.23    c0.48-0.41,0.94-1.16,1.36-2.25c0.55-1.44,0.35-2.81-0.6-4.13c-0.89-1.18-1.78-2.36-2.67-3.54c-0.84-1.65-0.84-3.57,0.01-5.78    c0.53-1.38,1.58-2.34,3.15-2.89C323.36,58.3,324.86,58.3,326.28,58.84z"
                    id="path124" />
            <path
                    class="st2"
                    d="M332.65,63.91l2.26,1.07l1.51-3.45l2.84,1.35l-1.84,3.29l3.9,1.85l-1.51,3.18l-4.03-2.15l-3.84,8.73    c-0.3,0.72-0.59,1.44-0.86,2.15c-0.19,0.64-0.18,1.01,0.02,1.1c0.39,0.19,1.01-0.31,1.88-1.5c0.87-1.36,1.39-2.16,1.55-2.41    l2.79,2.6c-1.47,1.76-2.89,2.9-4.26,3.44c-1.14,0.44-2.2,0.42-3.19-0.05c-0.76-0.36-1.33-0.83-1.72-1.4    c-0.47-0.68-0.53-1.38-0.19-2.11l5.62-11.81l-2.43-1.06L332.65,63.91z"
                    id="path126" />
            <path
                    class="st2"
                    d="M344.63,75.01l-4.25,9.5l-2.88-1.47c0.39-0.77,0.96-1.95,1.69-3.53c0.74-1.59,1.3-2.77,1.71-3.56    c0.15-0.29,0.35-0.63,0.61-1.02c0.25-0.39,0.51-0.76,0.76-1.12L344.63,75.01z M345.95,73.02c-0.25,0.5-0.55,0.83-0.89,1    c-0.34,0.17-0.74,0.14-1.2-0.09c-0.37-0.19-0.63-0.47-0.8-0.84c-0.17-0.37-0.16-0.74,0.03-1.11c0.21-0.41,0.57-0.71,1.09-0.92    c0.52-0.21,0.98-0.21,1.39-0.01c0.34,0.18,0.54,0.46,0.59,0.84C346.21,72.28,346.14,72.66,345.95,73.02z"
                    id="path128" />
            <path
                    class="st2"
                    d="M339.82,88.8c0.71-1.25,1.45-2.49,2.21-3.71c2.3-3.68,3.58-5.75,3.84-6.19c1.79-3.15,3.38-6.39,4.77-9.71    l12.54,6.9l-2.01,2.48c-0.79-0.57-1.47-1.05-2.05-1.45c-0.58-0.4-1.11-0.73-1.59-1.01c-0.52-0.29-1.24-0.59-2.15-0.89    c-0.92-0.3-1.79-0.58-2.6-0.86l-3.75,5.18l4.94,2.98l-2.62,2.81l-3.77-1.86l-1.26,2.09c-0.96,1.68-1.64,3.41-2.06,5.19    L339.82,88.8z"
                    id="path130" />
            <path
                    class="st2"
                    d="M370.46,97.17l0.65,0.31c0.8,0.58,0.96,1.67,0.49,3.28c-0.37,1.21-0.92,2.32-1.65,3.34    c-0.87,1.2-2.14,1.77-3.81,1.7c-1.47-0.07-2.84-0.56-4.1-1.48c-1.22-0.88-2.29-1.89-3.21-3.04c1-1.38,2.22-3,3.66-4.83    c1.44-1.84,2.89-3.68,4.34-5.52c1.46-1.84,2.69-3.46,3.7-4.86c0.76-1.05,1.37-2.17,1.85-3.35c1.23,0.51,2.39,1.16,3.5,1.95    c1.7,1.22,2.74,2.61,3.13,4.15c0.4,1.66,0,3.32-1.2,4.99c-1.01,1.4-2.04,2.38-3.1,2.93C373.42,97.4,372.01,97.54,370.46,97.17z     M362.85,102.18l0.35,0.25c0.97,0.7,1.71,0.98,2.23,0.83c0.52-0.14,1.19-0.68,2.01-1.61l0.73-0.85c0.46-0.63,0.54-1.33,0.24-2.07    c-0.22-0.54-0.66-1.12-1.33-1.75L362.85,102.18z M368.98,93.41c1.7,0.42,3.02,0.38,3.94-0.13c0.67-0.38,1.61-1.39,2.8-3.04    c0.56-0.77,0.67-1.55,0.35-2.33c-0.27-0.65-0.82-1.27-1.65-1.88l-0.2-0.14L368.98,93.41z"
                    id="path132" />
            <path
                    class="st2"
                    d="M380.22,103.01c0.27,0.22,0.51,0.47,0.72,0.75c0.21,0.28,0.4,0.58,0.56,0.9l0.88-1.07    c0.4-0.49,0.75-0.99,1.05-1.49c0.3-0.5,0.55-0.99,0.77-1.48c0.21-0.62,0.32-1.15,0.31-1.6c-0.01-0.45-0.16-0.78-0.45-1.02    c-0.16-0.13-0.66-0.15-1.49-0.07c-0.39,0.05-0.78,0.13-1.16,0.23c-0.38,0.1-0.71,0.2-1,0.32l-2.63-2.19    c1.44-0.82,2.9-1.23,4.39-1.23c1.52,0.02,2.7,0.37,3.53,1.05c0.96,0.78,1.58,1.77,1.88,2.97c0.35,1.24,0.18,2.42-0.5,3.53    l0.02-0.02c-0.52,0.99-1.19,2.05-2.05,3.19c-0.37,0.55-0.85,1.21-1.44,1.99c-0.59,0.78-1.27,1.63-2.04,2.57l-1.89,2.32l-1.61,1.92    l-3.34-2.25l0.23-0.29c-0.75-0.13-1.42-0.44-2.03-0.94c-1-0.82-1.45-1.98-1.33-3.48l-0.02,0.02c0.09-1.25,0.54-2.37,1.35-3.36    c0.52-0.64,1.07-1.15,1.64-1.53c0.56-0.39,1.13-0.66,1.68-0.82c0.67-0.14,1.34-0.12,2.01,0.05    C378.93,102.14,379.58,102.49,380.22,103.01z M378.63,105.14c-0.43-0.35-0.9-0.42-1.42-0.22c-0.51,0.21-0.97,0.56-1.39,1.07    c-0.46,0.56-0.75,1.15-0.9,1.78c-0.22,0.65-0.15,1.11,0.19,1.38c0.17,0.14,0.37,0.26,0.58,0.36c0.21,0.1,0.54,0.16,1,0.19    c0.49-0.58,0.95-1.1,1.36-1.58c0.41-0.47,0.86-1,1.37-1.57c-0.08-0.33-0.18-0.6-0.29-0.82    C379.03,105.52,378.86,105.33,378.63,105.14z"
                    id="path134" />
            <path
                    class="st2"
                    d="M385.77,108.08c0.63-0.68,1.86-2.17,3.69-4.48c0.93-1.16,1.67-2.05,2.24-2.67l2.27,2.09l-0.87,1.09l0.14-0.25    c0.24-0.26,0.57-0.33,0.99-0.21c0.42,0.12,0.94,0.46,1.54,1.01c1.39,1.28,1.83,2.59,1.3,3.92c-0.26,0.68-1.18,1.87-2.73,3.57    l-2.21-1.57c0.94-1.23,1.5-1.99,1.67-2.27c0.85-1.35,1.09-2.18,0.75-2.5c-0.49-0.44-1.01-0.57-1.57-0.39    c-0.39,0.12-1.33,0.94-2.82,2.46c-1.49,1.52-2.76,2.85-3.81,3.98c-0.83,0.91-1.7,1.93-2.62,3.06c-0.91,1.13-2.12,2.74-3.61,4.83    l-3.19-2.72c0.83-0.91,2.68-2.76,5.53-5.56C383.88,110.05,384.99,108.93,385.77,108.08z"
                    id="path136" />
	</g>
</g>
</svg>